<svg width="512" height="512" viewBox="0 0 512 512" xmlns="http://www.w3.org/2000/svg">
  <!-- Windows (PC) app icon: cat-1-svgrepo outline path at its original coordinates (already fills the viewBox).
       No transform/scale. accent (#e07b00) solid, transparent background. -->
  <path fill="#E07B00" d="M430.762,126.907c-42.384-89.329-67.753-89.329-78.722-89.329c-1.947,0-3.884,0.167-5.785,0.482c-18.1,3.014-41.374,22.031-69.302,56.579h-20.955h-20.974c-27.909-34.548-51.202-53.566-69.301-56.579c-1.891-0.315-3.829-0.482-5.758-0.482h-0.25c-11.108,0-36.412,0.649-78.499,89.329C34.188,164.608-32.49,256.506,18.091,366.094c49.996,108.328,191.425,108.328,237.907,108.328c46.472,0,187.911,0,237.907-108.318C544.495,256.506,477.809,164.608,430.762,126.907z"/>
</svg>
